<svg width="600" height="400" viewBox="0 0 600 400" fill="none" xmlns="http://www.w3.org/2000/svg">
  <defs>
    <linearGradient id="bg" x1="0%" y1="0%" x2="100%" y2="100%">
      <stop offset="0%" style="stop-color:#F8FAFC;stop-opacity:1" />
      <stop offset="100%" style="stop-color:#E2E8F0;stop-opacity:1" />
    </linearGradient>
    <linearGradient id="person1" x1="0%" y1="0%" x2="100%" y2="100%">
      <stop offset="0%" style="stop-color:#3B82F6;stop-opacity:1" />
      <stop offset="100%" style="stop-color:#1E40AF;stop-opacity:1" />
    </linearGradient>
    <linearGradient id="person2" x1="0%" y1="0%" x2="100%" y2="100%">
      <stop offset="0%" style="stop-color:#8B5CF6;stop-opacity:1" />
      <stop offset="100%" style="stop-color:#7C3AED;stop-opacity:1" />
    </linearGradient>
    <linearGradient id="person3" x1="0%" y1="0%" x2="100%" y2="100%">
      <stop offset="0%" style="stop-color:#10B981;stop-opacity:1" />
      <stop offset="100%" style="stop-color:#059669;stop-opacity:1" />
    </linearGradient>
    <linearGradient id="person4" x1="0%" y1="0%" x2="100%" y2="100%">
      <stop offset="0%" style="stop-color:#F59E0B;stop-opacity:1" />
      <stop offset="100%" style="stop-color:#D97706;stop-opacity:1" />
    </linearGradient>
  </defs>
  
  <!-- Background with office setting -->
  <rect width="600" height="400" fill="url(#bg)"/>
  
  <!-- Office backdrop -->
  <rect x="0" y="0" width="600" height="250" fill="#F1F5F9"/>
  <rect x="50" y="30" width="150" height="100" rx="8" fill="#FFFFFF" stroke="#E5E7EB" stroke-width="2"/>
  <rect x="400" y="40" width="120" height="80" rx="6" fill="#FFFFFF" stroke="#E5E7EB" stroke-width="2"/>
  
  <!-- Sque logo on wall -->
  <rect x="475" y="50" width="20" height="20" rx="4" fill="url(#person1)"/>
  <text x="485" y="62" font-family="Arial, sans-serif" font-size="10" font-weight="bold" fill="white" text-anchor="middle">S</text>
  <text x="505" y="58" font-family="Arial, sans-serif" font-size="8" font-weight="bold" fill="#1F2937">Sque</text>
  <text x="505" y="68" font-family="Arial, sans-serif" font-size="6" fill="#6B7280">TECH</text>
  
  <!-- Team Members -->
  
  <!-- Person 1 - CEO/Founder (Kenneth) -->
  <circle cx="150" cy="320" r="45" fill="url(#person1)"/>
  <circle cx="150" cy="310" r="15" fill="white" opacity="0.9"/>
  <rect x="135" y="325" width="30" height="20" rx="15" fill="white" opacity="0.9"/>
  <text x="150" y="315" font-family="Arial, sans-serif" font-size="12" font-weight="bold" fill="#1F2937" text-anchor="middle">KF</text>
  
  <!-- Person 2 - CTO -->
  <circle cx="250" cy="315" r="42" fill="url(#person2)"/>
  <circle cx="250" cy="305" r="14" fill="white" opacity="0.9"/>
  <rect x="236" y="320" width="28" height="18" rx="14" fill="white" opacity="0.9"/>
  <text x="250" y="310" font-family="Arial, sans-serif" font-size="12" font-weight="bold" fill="#1F2937" text-anchor="middle">AS</text>
  
  <!-- Person 3 - Lead AI Engineer -->
  <circle cx="350" cy="320" r="45" fill="url(#person3)"/>
  <circle cx="350" cy="310" r="15" fill="white" opacity="0.9"/>
  <rect x="335" y="325" width="30" height="20" rx="15" fill="white" opacity="0.9"/>
  <text x="350" y="315" font-family="Arial, sans-serif" font-size="12" font-weight="bold" fill="#1F2937" text-anchor="middle">MR</text>
  
  <!-- Person 4 - Senior Developer -->
  <circle cx="450" cy="315" r="42" fill="url(#person4)"/>
  <circle cx="450" cy="305" r="14" fill="white" opacity="0.9"/>
  <rect x="436" y="320" width="28" height="18" rx="14" fill="white" opacity="0.9"/>
  <text x="450" y="310" font-family="Arial, sans-serif" font-size="12" font-weight="bold" fill="#1F2937" text-anchor="middle">LC</text>
  
  <!-- Name plates -->
  <rect x="100" y="370" width="100" height="25" rx="4" fill="white" stroke="#E5E7EB" stroke-width="1"/>
  <text x="150" y="378" font-family="Arial, sans-serif" font-size="10" font-weight="600" fill="#1F2937" text-anchor="middle">Kenneth Feh</text>
  <text x="150" y="390" font-family="Arial, sans-serif" font-size="8" fill="#6B7280" text-anchor="middle">CEO & Founder</text>
  
  <rect x="200" y="365" width="100" height="25" rx="4" fill="white" stroke="#E5E7EB" stroke-width="1"/>
  <text x="250" y="373" font-family="Arial, sans-serif" font-size="10" font-weight="600" fill="#1F2937" text-anchor="middle">Alex Singh</text>
  <text x="250" y="385" font-family="Arial, sans-serif" font-size="8" fill="#6B7280" text-anchor="middle">CTO</text>
  
  <rect x="300" y="370" width="100" height="25" rx="4" fill="white" stroke="#E5E7EB" stroke-width="1"/>
  <text x="350" y="378" font-family="Arial, sans-serif" font-size="10" font-weight="600" fill="#1F2937" text-anchor="middle">Maria Rodriguez</text>
  <text x="350" y="390" font-family="Arial, sans-serif" font-size="8" fill="#6B7280" text-anchor="middle">Lead AI Engineer</text>
  
  <rect x="400" y="365" width="100" height="25" rx="4" fill="white" stroke="#E5E7EB" stroke-width="1"/>
  <text x="450" y="373" font-family="Arial, sans-serif" font-size="10" font-weight="600" fill="#1F2937" text-anchor="middle">Li Chen</text>
  <text x="450" y="385" font-family="Arial, sans-serif" font-size="8" fill="#6B7280" text-anchor="middle">Senior Developer</text>
  
  <!-- Team subtitle -->
  <text x="300" y="30" font-family="Arial, sans-serif" font-size="18" font-weight="bold" fill="#1F2937" text-anchor="middle">The Sque Tech Team</text>
  <text x="300" y="50" font-family="Arial, sans-serif" font-size="12" fill="#6B7280" text-anchor="middle">Expert developers with experience at HSBC, Goldman Sachs, and leading startups</text>
  
  <!-- Experience badges -->
  <rect x="80" y="80" width="40" height="20" rx="10" fill="#3B82F6" opacity="0.1"/>
  <text x="100" y="92" font-family="Arial, sans-serif" font-size="8" font-weight="500" fill="#3B82F6" text-anchor="middle">HSBC</text>
  
  <rect x="130" y="80" width="60" height="20" rx="10" fill="#8B5CF6" opacity="0.1"/>
  <text x="160" y="92" font-family="Arial, sans-serif" font-size="8" font-weight="500" fill="#8B5CF6" text-anchor="middle">Goldman</text>
  
  <rect x="200" y="80" width="50" height="20" rx="10" fill="#10B981" opacity="0.1"/>
  <text x="225" y="92" font-family="Arial, sans-serif" font-size="8" font-weight="500" fill="#10B981" text-anchor="middle">Google</text>
  
  <rect x="260" y="80" width="50" height="20" rx="10" fill="#F59E0B" opacity="0.1"/>
  <text x="285" y="92" font-family="Arial, sans-serif" font-size="8" font-weight="500" fill="#F59E0B" text-anchor="middle">Startup</text>
</svg>