<svg width="800" height="500" viewBox="0 0 800 500" xmlns="http://www.w3.org/2000/svg">
  <!-- Background -->
  <rect width="800" height="500" fill="#ffffff" rx="16"/>
  
  <!-- Header Section -->
  <rect x="24" y="24" width="752" height="60" fill="#f8fafc" rx="8"/>
  
  <!-- Logo and Navigation -->
  <circle cx="60" cy="54" r="16" fill="#3b82f6"/>
  <circle cx="56" cy="50" r="4" fill="white"/>
  <circle cx="64" cy="50" r="4" fill="white"/>
  <rect x="52" y="56" width="16" height="4" fill="white" rx="2"/>
  
  <text x="88" y="58" font-family="Arial, sans-serif" font-size="14" font-weight="bold" fill="#1f2937">Sque</text>
  
  <!-- Navigation Items -->
  <text x="200" y="58" font-family="Arial, sans-serif" font-size="12" fill="#6b7280">Manage Control</text>
  <text x="300" y="58" font-family="Arial, sans-serif" font-size="12" fill="#1f2937">Home</text>
  <text x="350" y="58" font-family="Arial, sans-serif" font-size="12" fill="#6b7280">Chat</text>
  <text x="390" y="58" font-family="Arial, sans-serif" font-size="12" fill="#6b7280">Clients</text>
  <text x="440" y="58" font-family="Arial, sans-serif" font-size="12" fill="#6b7280">Cases</text>
  <text x="480" y="58" font-family="Arial, sans-serif" font-size="12" fill="#6b7280">Bill & Invoice</text>
  <text x="560" y="58" font-family="Arial, sans-serif" font-size="12" fill="#6b7280">Documents</text>
  <text x="640" y="58" font-family="Arial, sans-serif" font-size="12" fill="#6b7280">Emails</text>
  
  <!-- Quick Actions Section -->
  <rect x="24" y="100" width="240" height="140" fill="#ffffff" stroke="#e5e7eb" rx="8"/>
  <text x="36" y="122" font-family="Arial, sans-serif" font-size="14" font-weight="bold" fill="#1f2937">Quick Actions</text>
  
  <rect x="36" y="135" width="100" height="20" fill="#3b82f6" rx="4"/>
  <text x="40" y="147" font-family="Arial, sans-serif" font-size="10" fill="white">Quick Actions</text>
  
  <rect x="36" y="165" width="80" height="16" fill="#f3f4f6" rx="4"/>
  <text x="40" y="175" font-family="Arial, sans-serif" font-size="9" fill="#6b7280">Tools</text>
  
  <rect x="36" y="190" width="90" height="16" fill="#f3f4f6" rx="4"/>
  <text x="40" y="200" font-family="Arial, sans-serif" font-size="9" fill="#6b7280">Scheduling</text>
  
  <!-- User Activity Metrics -->
  <rect x="280" y="100" width="240" height="140" fill="#ffffff" stroke="#e5e7eb" rx="8"/>
  <text x="292" y="122" font-family="Arial, sans-serif" font-size="14" font-weight="bold" fill="#1f2937">User Activity Metrics</text>
  <text x="292" y="138" font-family="Arial, sans-serif" font-size="10" fill="#6b7280">Showing activity trends for clients, cases, billing hours, and revenue</text>
  
  <text x="465" y="122" font-family="Arial, sans-serif" font-size="10" fill="#6b7280">Last 30 days</text>
  
  <!-- Metrics Row -->
  <text x="300" y="170" font-family="Arial, sans-serif" font-size="24" font-weight="bold" fill="#1f2937">1</text>
  <text x="300" y="185" font-family="Arial, sans-serif" font-size="10" fill="#6b7280">Total Clients</text>
  
  <text x="370" y="170" font-family="Arial, sans-serif" font-size="24" font-weight="bold" fill="#1f2937">0</text>
  <text x="370" y="185" font-family="Arial, sans-serif" font-size="10" fill="#6b7280">Total Cases</text>
  
  <text x="430" y="170" font-family="Arial, sans-serif" font-size="24" font-weight="bold" fill="#1f2937">0.2</text>
  <text x="430" y="185" font-family="Arial, sans-serif" font-size="10" fill="#6b7280">Billing Hours</text>
  
  <text x="480" y="170" font-family="Arial, sans-serif" font-size="24" font-weight="bold" fill="#1f2937">$0.1k</text>
  <text x="480" y="185" font-family="Arial, sans-serif" font-size="10" fill="#6b7280">Total Revenue</text>
  
  <!-- Chart Area -->
  <rect x="290" y="200" width="220" height="30" fill="#f3f4f6" rx="4"/>
  
  <!-- Activity Timeline -->
  <rect x="540" y="100" width="236" height="340" fill="#ffffff" stroke="#e5e7eb" rx="8"/>
  <text x="552" y="122" font-family="Arial, sans-serif" font-size="14" font-weight="bold" fill="#1f2937">Activity Timeline</text>
  
  <!-- Timeline Entry 1 -->
  <circle cx="565" cy="150" r="4" fill="#10b981"/>
  <text x="580" y="148" font-family="Arial, sans-serif" font-size="11" font-weight="bold" fill="#1f2937">Meeting with Swapnil</text>
  <text x="580" y="160" font-family="Arial, sans-serif" font-size="9" fill="#6b7280">Master about dispute case</text>
  
  <rect x="580" y="170" width="180" height="14" fill="#f3f4f6" rx="2"/>
  <text x="584" y="180" font-family="Arial, sans-serif" font-size="8" fill="#6b7280">8/19/2024, 10:02 PM</text>
  
  <text x="584" y="195" font-family="Arial, sans-serif" font-size="9" fill="#6b7280">Subject: Meeting with Swapnil</text>
  <text x="584" y="207" font-family="Arial, sans-serif" font-size="9" fill="#6b7280">Master about dispute case</text>
  
  <text x="584" y="222" font-family="Arial, sans-serif" font-size="8" fill="#6b7280">From: admin@squetechsolutions.com</text>
  <text x="584" y="234" font-family="Arial, sans-serif" font-size="8" fill="#6b7280">To: info@squetechsolutions.com, swapnil@squetechsolutions.com</text>
  
  <!-- AI Analysis Section -->
  <rect x="590" y="250" width="170" height="40" fill="#f0f9ff" stroke="#3b82f6" rx="4"/>
  <text x="595" y="265" font-family="Arial, sans-serif" font-size="9" font-weight="bold" fill="#3b82f6">AI Analysis</text>
  <text x="595" y="277" font-family="Arial, sans-serif" font-size="8" fill="#1e40af">This email from admin@squetechsolutions.com sent subject</text>
  <text x="595" y="287" font-family="Arial, sans-serif" font-size="8" fill="#1e40af">Matter about dispute case. "This team processes and added to the timeline for tracking purposes."</text>
  
  <!-- Next Action -->
  <rect x="590" y="300" width="170" height="25" fill="#fef3c7" stroke="#f59e0b" rx="4"/>
  <text x="595" y="315" font-family="Arial, sans-serif" font-size="9" font-weight="bold" fill="#d97706">Next Action:</text>
  <text x="595" y="325" font-family="Arial, sans-serif" font-size="8" fill="#d97706">Review email content and take appropriate action.</text>
  
  <!-- Time tracking -->
  <rect x="590" y="340" width="100" height="20" fill="#e5e7eb" rx="10"/>
  <circle cx="605" cy="350" r="3" fill="#6b7280"/>
  <text x="620" y="354" font-family="Arial, sans-serif" font-size="8" fill="#6b7280">5 minutes</text>
  
  <!-- Avatar -->
  <circle cx="720" cy="380" r="12" fill="#f3f4f6"/>
  <text x="716" y="385" font-family="Arial, sans-serif" font-size="10" fill="#6b7280">M</text>
  <text x="588" y="395" font-family="Arial, sans-serif" font-size="9" fill="#6b7280">Mariah Murray</text>
  <text x="588" y="407" font-family="Arial, sans-serif" font-size="8" fill="#6b7280">Admin@squetechsolutions</text>
  
  <!-- Controls at bottom -->
  <rect x="600" y="415" width="20" height="15" fill="#e5e7eb" rx="2"/>
  <rect x="630" y="415" width="20" height="15" fill="#e5e7eb" rx="2"/>
  
  <!-- Bottom Section - Revenue Projection -->
  <rect x="24" y="260" width="496" height="180" fill="#ffffff" stroke="#e5e7eb" rx="8"/>
  <text x="36" y="282" font-family="Arial, sans-serif" font-size="14" font-weight="bold" fill="#1f2937">Revenue Analytics</text>
  
  <!-- Chart placeholder -->
  <rect x="40" y="300" width="460" height="120" fill="#f8fafc" rx="4"/>
  
  <!-- Chart lines and data points -->
  <polyline points="60,380 120,360 180,340 240,320 300,300 360,280 420,260 480,240" 
            stroke="#10b981" stroke-width="3" fill="none"/>
  
  <!-- Data points -->
  <circle cx="60" cy="380" r="3" fill="#10b981"/>
  <circle cx="120" cy="360" r="3" fill="#10b981"/>
  <circle cx="180" cy="340" r="3" fill="#10b981"/>
  <circle cx="240" cy="320" r="3" fill="#10b981"/>
  <circle cx="300" cy="300" r="3" fill="#10b981"/>
  <circle cx="360" cy="280" r="3" fill="#10b981"/>
  <circle cx="420" cy="260" r="3" fill="#10b981"/>
  <circle cx="480" cy="240" r="3" fill="#10b981"/>
  
  <!-- X-axis labels -->
  <text x="50" y="400" font-family="Arial, sans-serif" font-size="8" fill="#6b7280">Jul 28</text>
  <text x="110" y="400" font-family="Arial, sans-serif" font-size="8" fill="#6b7280">Jul 30</text>
  <text x="170" y="400" font-family="Arial, sans-serif" font-size="8" fill="#6b7280">Aug 1</text>
  <text x="230" y="400" font-family="Arial, sans-serif" font-size="8" fill="#6b7280">Aug 3</text>
  <text x="290" y="400" font-family="Arial, sans-serif" font-size="8" fill="#6b7280">Aug 5</text>
  <text x="350" y="400" font-family="Arial, sans-serif" font-size="8" fill="#6b7280">Aug 7</text>
  <text x="410" y="400" font-family="Arial, sans-serif" font-size="8" fill="#6b7280">Aug 9</text>
  <text x="470" y="400" font-family="Arial, sans-serif" font-size="8" fill="#6b7280">Aug 11</text>
  
  <!-- Y-axis labels -->
  <text x="25" y="390" font-family="Arial, sans-serif" font-size="8" fill="#6b7280">0%</text>
  <text x="25" y="360" font-family="Arial, sans-serif" font-size="8" fill="#6b7280">5%</text>
  <text x="25" y="330" font-family="Arial, sans-serif" font-size="8" fill="#6b7280">10%</text>
  <text x="25" y="300" font-family="Arial, sans-serif" font-size="8" fill="#6b7280">15%</text>
  <text x="25" y="270" font-family="Arial, sans-serif" font-size="8" fill="#6b7280">20%</text>
  <text x="25" y="240" font-family="Arial, sans-serif" font-size="8" fill="#6b7280">25%</text>
  
  <!-- Legend -->
  <circle cx="450" cy="282" r="3" fill="#10b981"/>
  <text x="460" y="286" font-family="Arial, sans-serif" font-size="10" fill="#6b7280">Revenue</text>
</svg>